solid fluid
  facet normal -0.866026 -0.5 0
    outer loop
      vertex 10.0311 1 1
      vertex 10.0311 1 3
      vertex 9.45374 2 1
    endloop
  endfacet
  facet normal -0.866026 -0.5 0
    outer loop
      vertex 10.0311 1 3
      vertex 9.45374 2 3
      vertex 9.45374 2 1
    endloop
  endfacet
  facet normal -0.866025 -0.500001 0
    outer loop
      vertex 9.45374 2 1
      vertex 9.45374 2 3
      vertex 8.87639 3 1
    endloop
  endfacet
  facet normal -0.866025 -0.500001 0
    outer loop
      vertex 9.45374 2 3
      vertex 8.87639 3 3
      vertex 8.87639 3 1
    endloop
  endfacet
  facet normal -0.866026 -0.5 0
    outer loop
      vertex 8.87639 3 1
      vertex 8.87639 3 3
      vertex 8.29904 4 1
    endloop
  endfacet
  facet normal -0.866026 -0.5 0
    outer loop
      vertex 8.87639 3 3
      vertex 8.29904 4 3
      vertex 8.29904 4 1
    endloop
  endfacet
  facet normal -0.866025 -0.5 0
    outer loop
      vertex 8.29904 4 1
      vertex 8.29904 4 3
      vertex 7.72169 5 1
    endloop
  endfacet
  facet normal -0.866025 -0.5 -0
    outer loop
      vertex 7 6.25 3
      vertex 7 6.25 1
      vertex 7.14434 6 3
    endloop
  endfacet
  facet normal -0.866025 -0.5 4.12953e-08
    outer loop
      vertex 7 6.25 1
      vertex 7.72169 5 1
      vertex 7.14434 6 3
    endloop
  endfacet
  facet normal -0.866025 -0.5 0
    outer loop
      vertex 7.14434 6 3
      vertex 7.72169 5 1
      vertex 7.72169 5 3
    endloop
  endfacet
  facet normal -0.866025 -0.5 0
    outer loop
      vertex 7.72169 5 1
      vertex 8.29904 4 3
      vertex 7.72169 5 3
    endloop
  endfacet
  facet normal 0 -1 0
    outer loop
      vertex 10.0311 1 3
      vertex 10.0311 1 1
      vertex 15 1 3
    endloop
  endfacet
  facet normal 0 -1 0
    outer loop
      vertex 10.0311 1 1
      vertex 15 1 1
      vertex 15 1 3
    endloop
  endfacet
  facet normal 0 1 0
    outer loop
      vertex 10.0311 -1 1
      vertex 10.0311 -1 3
      vertex 15 -1 1
    endloop
  endfacet
  facet normal -0 1 0
    outer loop
      vertex 10.0311 -1 3
      vertex 15 -1 3
      vertex 15 -1 1
    endloop
  endfacet
  facet normal -0.866025 0.5 0
    outer loop
      vertex 7 -6.25 1
      vertex 7 -6.25 3
      vertex 7.14434 -6 1
    endloop
  endfacet
  facet normal -0.866025 0.5 -4.12953e-08
    outer loop
      vertex 7 -6.25 3
      vertex 7.72169 -5 3
      vertex 7.14434 -6 1
    endloop
  endfacet
  facet normal -0.866026 0.5 0
    outer loop
      vertex 10.0311 -1 3
      vertex 10.0311 -1 1
      vertex 9.45374 -2 3
    endloop
  endfacet
  facet normal -0.866026 0.5 0
    outer loop
      vertex 10.0311 -1 1
      vertex 9.45374 -2 1
      vertex 9.45374 -2 3
    endloop
  endfacet
  facet normal -0.866025 0.500001 0
    outer loop
      vertex 9.45374 -2 3
      vertex 9.45374 -2 1
      vertex 8.87639 -3 3
    endloop
  endfacet
  facet normal -0.866025 0.500001 0
    outer loop
      vertex 9.45374 -2 1
      vertex 8.87639 -3 1
      vertex 8.87639 -3 3
    endloop
  endfacet
  facet normal -0.866026 0.5 0
    outer loop
      vertex 8.87639 -3 3
      vertex 8.87639 -3 1
      vertex 8.29904 -4 3
    endloop
  endfacet
  facet normal -0.866026 0.5 0
    outer loop
      vertex 8.87639 -3 1
      vertex 8.29904 -4 1
      vertex 8.29904 -4 3
    endloop
  endfacet
  facet normal -0.866025 0.5 0
    outer loop
      vertex 8.29904 -4 3
      vertex 8.29904 -4 1
      vertex 7.72169 -5 3
    endloop
  endfacet
  facet normal -0.866025 0.5 0
    outer loop
      vertex 8.29904 -4 1
      vertex 7.72169 -5 1
      vertex 7.72169 -5 3
    endloop
  endfacet
  facet normal -0.866025 0.5 0
    outer loop
      vertex 7.72169 -5 3
      vertex 7.72169 -5 1
      vertex 7.14434 -6 1
    endloop
  endfacet
  facet normal 1 0 -0
    outer loop
      vertex 6 5.75 1
      vertex 6 5.75 3
      vertex 6 5.25 1
    endloop
  endfacet
  facet normal 1 0 0
    outer loop
      vertex 6 5.75 3
      vertex 6 5.25 3
      vertex 6 5.25 1
    endloop
  endfacet
  facet normal 1 -0 0
    outer loop
      vertex 6 -5.75 3
      vertex 6 -5.75 1
      vertex 6 -5.25 3
    endloop
  endfacet
  facet normal 1 0 0
    outer loop
      vertex 6 -5.75 1
      vertex 6 -5.25 1
      vertex 6 -5.25 3
    endloop
  endfacet
  facet normal 1 -0 0
    outer loop
      vertex 6 -4.75 3
      vertex 6 -4.75 1
      vertex 6 -4.25 3
    endloop
  endfacet
  facet normal 1 0 0
    outer loop
      vertex 6 -4.75 1
      vertex 6 -4.25 1
      vertex 6 -4.25 3
    endloop
  endfacet
  facet normal 1 -0 0
    outer loop
      vertex 6 -3.75 3
      vertex 6 -3.75 1
      vertex 6 -3.25 3
    endloop
  endfacet
  facet normal 1 0 0
    outer loop
      vertex 6 -3.75 1
      vertex 6 -3.25 1
      vertex 6 -3.25 3
    endloop
  endfacet
  facet normal 1 -0 0
    outer loop
      vertex 6 -2.75 3
      vertex 6 -2.75 1
      vertex 6 -2.25 3
    endloop
  endfacet
  facet normal 1 0 0
    outer loop
      vertex 6 -2.75 1
      vertex 6 -2.25 1
      vertex 6 -2.25 3
    endloop
  endfacet
  facet normal 1 -0 0
    outer loop
      vertex 6 -1.75 3
      vertex 6 -1.75 1
      vertex 6 -1.25 3
    endloop
  endfacet
  facet normal 1 0 0
    outer loop
      vertex 6 -1.75 1
      vertex 6 -1.25 1
      vertex 6 -1.25 3
    endloop
  endfacet
  facet normal 1 -0 0
    outer loop
      vertex 6 1.25 3
      vertex 6 1.25 1
      vertex 6 1.75 3
    endloop
  endfacet
  facet normal 1 0 0
    outer loop
      vertex 6 1.25 1
      vertex 6 1.75 1
      vertex 6 1.75 3
    endloop
  endfacet
  facet normal 1 -0 0
    outer loop
      vertex 6 2.25 3
      vertex 6 2.25 1
      vertex 6 2.75 3
    endloop
  endfacet
  facet normal 1 0 0
    outer loop
      vertex 6 2.25 1
      vertex 6 2.75 1
      vertex 6 2.75 3
    endloop
  endfacet
  facet normal 1 -0 0
    outer loop
      vertex 6 3.25 3
      vertex 6 3.25 1
      vertex 6 3.75 3
    endloop
  endfacet
  facet normal 1 0 0
    outer loop
      vertex 6 3.25 1
      vertex 6 3.75 1
      vertex 6 3.75 3
    endloop
  endfacet
  facet normal 1 -0 0
    outer loop
      vertex 6 4.25 3
      vertex 6 4.25 1
      vertex 6 4.75 3
    endloop
  endfacet
  facet normal 1 0 0
    outer loop
      vertex 6 4.25 1
      vertex 6 4.75 1
      vertex 6 4.75 3
    endloop
  endfacet
  facet normal 0.866026 -0.5 0
    outer loop
      vertex -10.0311 1 3
      vertex -10.0311 1 1
      vertex -9.45374 2 3
    endloop
  endfacet
  facet normal 0.866026 -0.5 0
    outer loop
      vertex -10.0311 1 1
      vertex -9.45374 2 1
      vertex -9.45374 2 3
    endloop
  endfacet
  facet normal 0.866025 -0.500001 0
    outer loop
      vertex -9.45374 2 3
      vertex -9.45374 2 1
      vertex -8.87639 3 3
    endloop
  endfacet
  facet normal 0.866025 -0.500001 0
    outer loop
      vertex -9.45374 2 1
      vertex -8.87639 3 1
      vertex -8.87639 3 3
    endloop
  endfacet
  facet normal 0.866026 -0.5 0
    outer loop
      vertex -8.87639 3 3
      vertex -8.87639 3 1
      vertex -8.29904 4 3
    endloop
  endfacet
  facet normal 0.866026 -0.5 0
    outer loop
      vertex -8.87639 3 1
      vertex -8.29904 4 1
      vertex -8.29904 4 3
    endloop
  endfacet
  facet normal 0.866025 -0.5 0
    outer loop
      vertex -8.29904 4 3
      vertex -8.29904 4 1
      vertex -7.72169 5 3
    endloop
  endfacet
  facet normal 0.866025 -0.5 0
    outer loop
      vertex -8.29904 4 1
      vertex -7.72169 5 1
      vertex -7.72169 5 3
    endloop
  endfacet
  facet normal 0.866025 -0.5 0
    outer loop
      vertex -7.72169 5 3
      vertex -7.72169 5 1
      vertex -7.14434 6 3
    endloop
  endfacet
  facet normal 0.866025 -0.5 4.12953e-08
    outer loop
      vertex -7.72169 5 1
      vertex -7 6.25 1
      vertex -7.14434 6 3
    endloop
  endfacet
  facet normal 0.866025 -0.5 0
    outer loop
      vertex -7.14434 6 3
      vertex -7 6.25 1
      vertex -7 6.25 3
    endloop
  endfacet
  facet normal 0.866026 0.5 -0
    outer loop
      vertex -10.0311 -1 1
      vertex -10.0311 -1 3
      vertex -9.45374 -2 1
    endloop
  endfacet
  facet normal 0.866026 0.5 0
    outer loop
      vertex -10.0311 -1 3
      vertex -9.45374 -2 3
      vertex -9.45374 -2 1
    endloop
  endfacet
  facet normal 0.866025 0.500001 -0
    outer loop
      vertex -9.45374 -2 1
      vertex -9.45374 -2 3
      vertex -8.87639 -3 1
    endloop
  endfacet
  facet normal 0.866025 0.500001 0
    outer loop
      vertex -9.45374 -2 3
      vertex -8.87639 -3 3
      vertex -8.87639 -3 1
    endloop
  endfacet
  facet normal 0.866026 0.5 -0
    outer loop
      vertex -8.87639 -3 1
      vertex -8.87639 -3 3
      vertex -8.29904 -4 1
    endloop
  endfacet
  facet normal 0.866026 0.5 0
    outer loop
      vertex -8.87639 -3 3
      vertex -8.29904 -4 3
      vertex -8.29904 -4 1
    endloop
  endfacet
  facet normal 0.866025 0.5 -0
    outer loop
      vertex -8.29904 -4 1
      vertex -8.29904 -4 3
      vertex -7.72169 -5 1
    endloop
  endfacet
  facet normal 0.866025 0.5 0
    outer loop
      vertex -8.29904 -4 3
      vertex -7.72169 -5 3
      vertex -7.72169 -5 1
    endloop
  endfacet
  facet normal 0.866025 0.5 -0
    outer loop
      vertex -7.72169 -5 1
      vertex -7.72169 -5 3
      vertex -7.14434 -6 1
    endloop
  endfacet
  facet normal 0.866025 0.5 -4.12953e-08
    outer loop
      vertex -7.72169 -5 3
      vertex -7 -6.25 3
      vertex -7.14434 -6 1
    endloop
  endfacet
  facet normal 0.866025 0.5 0
    outer loop
      vertex -7.14434 -6 1
      vertex -7 -6.25 3
      vertex -7 -6.25 1
    endloop
  endfacet
  facet normal -0 -0 -1
    outer loop
      vertex 7 6.25 3
      vertex 7.14434 6 3
      vertex -7 6.25 3
    endloop
  endfacet
  facet normal 0 0 -1
    outer loop
      vertex 7.14434 6 3
      vertex -7.14434 6 3
      vertex -7 6.25 3
    endloop
  endfacet
  facet normal 0 0 -1
    outer loop
      vertex 6 5.75 3
      vertex 7.14434 6 3
      vertex 6 5.25 3
    endloop
  endfacet
  facet normal 0 -0 -1
    outer loop
      vertex 7.14434 6 3
      vertex 7.72169 5 3
      vertex 6 5.25 3
    endloop
  endfacet
  facet normal -0 -0 -1
    outer loop
      vertex 6 5.25 3
      vertex 7.72169 5 3
      vertex -6 5.25 3
    endloop
  endfacet
  facet normal 0 0 -1
    outer loop
      vertex 7.72169 5 3
      vertex -7.72169 5 3
      vertex -6 5.25 3
    endloop
  endfacet
  facet normal -0 0 -1
    outer loop
      vertex -6 5.25 3
      vertex -7.72169 5 3
      vertex -6 5.75 3
    endloop
  endfacet
  facet normal 0 0 -1
    outer loop
      vertex -7.72169 5 3
      vertex -7.14434 6 3
      vertex -6 5.75 3
    endloop
  endfacet
  facet normal 0 0 -1
    outer loop
      vertex -6 5.75 3
      vertex -7.14434 6 3
      vertex 6 5.75 3
    endloop
  endfacet
  facet normal 0 0 -1
    outer loop
      vertex -7.14434 6 3
      vertex 7.14434 6 3
      vertex 6 5.75 3
    endloop
  endfacet
  facet normal 0 0 -1
    outer loop
      vertex 6 4.75 3
      vertex 7.72169 5 3
      vertex 6 4.25 3
    endloop
  endfacet
  facet normal 0 -0 -1
    outer loop
      vertex 7.72169 5 3
      vertex 8.29904 4 3
      vertex 6 4.25 3
    endloop
  endfacet
  facet normal -0 -0 -1
    outer loop
      vertex 6 4.25 3
      vertex 8.29904 4 3
      vertex -6 4.25 3
    endloop
  endfacet
  facet normal 0 0 -1
    outer loop
      vertex 8.29904 4 3
      vertex -8.29904 4 3
      vertex -6 4.25 3
    endloop
  endfacet
  facet normal -0 0 -1
    outer loop
      vertex -6 4.25 3
      vertex -8.29904 4 3
      vertex -6 4.75 3
    endloop
  endfacet
  facet normal 0 0 -1
    outer loop
      vertex -8.29904 4 3
      vertex -7.72169 5 3
      vertex -6 4.75 3
    endloop
  endfacet
  facet normal 0 0 -1
    outer loop
      vertex -6 4.75 3
      vertex -7.72169 5 3
      vertex 6 4.75 3
    endloop
  endfacet
  facet normal 0 0 -1
    outer loop
      vertex -7.72169 5 3
      vertex 7.72169 5 3
      vertex 6 4.75 3
    endloop
  endfacet
  facet normal -0 0 -1
    outer loop
      vertex -6 3.25 3
      vertex -8.87639 3 3
      vertex -6 3.75 3
    endloop
  endfacet
  facet normal 0 0 -1
    outer loop
      vertex -8.87639 3 3
      vertex -8.29904 4 3
      vertex -6 3.75 3
    endloop
  endfacet
  facet normal 0 0 -1
    outer loop
      vertex -6 3.75 3
      vertex -8.29904 4 3
      vertex 6 3.75 3
    endloop
  endfacet
  facet normal 0 0 -1
    outer loop
      vertex -8.29904 4 3
      vertex 8.29904 4 3
      vertex 6 3.75 3
    endloop
  endfacet
  facet normal 0 0 -1
    outer loop
      vertex 6 3.75 3
      vertex 8.29904 4 3
      vertex 6 3.25 3
    endloop
  endfacet
  facet normal 0 -0 -1
    outer loop
      vertex 8.29904 4 3
      vertex 8.87639 3 3
      vertex 6 3.25 3
    endloop
  endfacet
  facet normal 0 -0 -1
    outer loop
      vertex -8.87639 3 3
      vertex -6 2.75 3
      vertex -9.45374 2 3
    endloop
  endfacet
  facet normal 0 -0 -1
    outer loop
      vertex -6 2.75 3
      vertex -6 2.25 3
      vertex -9.45374 2 3
    endloop
  endfacet
  facet normal 0 0 -1
    outer loop
      vertex -9.45374 2 3
      vertex -6 2.25 3
      vertex 6 2.25 3
    endloop
  endfacet
  facet normal 0 0 -1
    outer loop
      vertex 6 2.75 3
      vertex 8.87639 3 3
      vertex 6 2.25 3
    endloop
  endfacet
  facet normal 0 -0 -1
    outer loop
      vertex 8.87639 3 3
      vertex 9.45374 2 3
      vertex 6 2.25 3
    endloop
  endfacet
  facet normal 0 -0 -1
    outer loop
      vertex 6 2.25 3
      vertex 9.45374 2 3
      vertex -9.45374 2 3
    endloop
  endfacet
  facet normal 0 -0 -1
    outer loop
      vertex -6 3.25 3
      vertex 6 3.25 3
      vertex -8.87639 3 3
    endloop
  endfacet
  facet normal 0 -0 -1
    outer loop
      vertex 6 3.25 3
      vertex 8.87639 3 3
      vertex -8.87639 3 3
    endloop
  endfacet
  facet normal 0 0 -1
    outer loop
      vertex -8.87639 3 3
      vertex 8.87639 3 3
      vertex -6 2.75 3
    endloop
  endfacet
  facet normal 0 0 -1
    outer loop
      vertex 8.87639 3 3
      vertex 6 2.75 3
      vertex -6 2.75 3
    endloop
  endfacet
  facet normal 0 0 -1
    outer loop
      vertex -10.5 0 3
      vertex -10.5 1 3
      vertex -10.0311 1 3
    endloop
  endfacet
  facet normal -0 -0 -1
    outer loop
      vertex -6 0.75 3
      vertex -6 0.25 3
      vertex -10.0311 1 3
    endloop
  endfacet
  facet normal 0 0 -1
    outer loop
      vertex 6 0.75 3
      vertex 9.45374 2 3
      vertex 6 0.25 3
    endloop
  endfacet
  facet normal 0 -0 -1
    outer loop
      vertex 9.45374 2 3
      vertex 10.0311 1 3
      vertex 6 0.25 3
    endloop
  endfacet
  facet normal 0 -0 -1
    outer loop
      vertex -10.0311 1 3
      vertex -6 0.25 3
      vertex -10.5 0 3
    endloop
  endfacet
  facet normal 0 -0 -1
    outer loop
      vertex -6 0.25 3
      vertex 6 0.25 3
      vertex -10.5 0 3
    endloop
  endfacet
  facet normal 0 0 -1
    outer loop
      vertex -10.5 0 3
      vertex 6 0.25 3
      vertex 15 0 3
    endloop
  endfacet
  facet normal 0 0 -1
    outer loop
      vertex 6 0.25 3
      vertex 10.0311 1 3
      vertex 15 0 3
    endloop
  endfacet
  facet normal 0 0 -1
    outer loop
      vertex 15 0 3
      vertex 10.0311 1 3
      vertex 15 1 3
    endloop
  endfacet
  facet normal 0 0 -1
    outer loop
      vertex -10.0311 1 3
      vertex -9.45374 2 3
      vertex -6 0.75 3
    endloop
  endfacet
  facet normal 0 0 -1
    outer loop
      vertex -9.45374 2 3
      vertex -6 1.25 3
      vertex -6 0.75 3
    endloop
  endfacet
  facet normal 0 0 -1
    outer loop
      vertex -6 0.75 3
      vertex -6 1.25 3
      vertex 6 0.75 3
    endloop
  endfacet
  facet normal 0 0 -1
    outer loop
      vertex -6 1.25 3
      vertex 6 1.25 3
      vertex 6 0.75 3
    endloop
  endfacet
  facet normal 0 0 -1
    outer loop
      vertex 6 0.75 3
      vertex 6 1.25 3
      vertex 9.45374 2 3
    endloop
  endfacet
  facet normal 0 0 -1
    outer loop
      vertex 6 1.25 3
      vertex 6 1.75 3
      vertex 9.45374 2 3
    endloop
  endfacet
  facet normal -0 0 -1
    outer loop
      vertex 9.45374 2 3
      vertex 6 1.75 3
      vertex -9.45374 2 3
    endloop
  endfacet
  facet normal 0 0 -1
    outer loop
      vertex 6 1.75 3
      vertex -6 1.75 3
      vertex -9.45374 2 3
    endloop
  endfacet
  facet normal 0 0 -1
    outer loop
      vertex -9.45374 2 3
      vertex -6 1.75 3
      vertex -6 1.25 3
    endloop
  endfacet
  facet normal 0 0 -1
    outer loop
      vertex 6 -1.25 3
      vertex 10.0311 -1 3
      vertex 6 -1.75 3
    endloop
  endfacet
  facet normal 0 0 -1
    outer loop
      vertex 10.0311 -1 3
      vertex 9.45374 -2 3
      vertex 6 -1.75 3
    endloop
  endfacet
  facet normal -0 -0 -1
    outer loop
      vertex 6 -1.75 3
      vertex 9.45374 -2 3
      vertex -6 -1.75 3
    endloop
  endfacet
  facet normal 0 0 -1
    outer loop
      vertex 9.45374 -2 3
      vertex -9.45374 -2 3
      vertex -6 -1.75 3
    endloop
  endfacet
  facet normal -0 0 -1
    outer loop
      vertex -6 -1.75 3
      vertex -9.45374 -2 3
      vertex -6 -1.25 3
    endloop
  endfacet
  facet normal 0 0 -1
    outer loop
      vertex -9.45374 -2 3
      vertex -10.0311 -1 3
      vertex -6 -1.25 3
    endloop
  endfacet
  facet normal 0 0 -1
    outer loop
      vertex -6 -1.25 3
      vertex -10.0311 -1 3
      vertex 6 -1.25 3
    endloop
  endfacet
  facet normal 0 0 -1
    outer loop
      vertex -10.0311 -1 3
      vertex 10.0311 -1 3
      vertex 6 -1.25 3
    endloop
  endfacet
  facet normal 0 0 -1
    outer loop
      vertex 6 -2.25 3
      vertex 9.45374 -2 3
      vertex 6 -2.75 3
    endloop
  endfacet
  facet normal 0 0 -1
    outer loop
      vertex 9.45374 -2 3
      vertex 8.87639 -3 3
      vertex 6 -2.75 3
    endloop
  endfacet
  facet normal -0 -0 -1
    outer loop
      vertex 6 -2.75 3
      vertex 8.87639 -3 3
      vertex -6 -2.75 3
    endloop
  endfacet
  facet normal 0 0 -1
    outer loop
      vertex 8.87639 -3 3
      vertex -8.87639 -3 3
      vertex -6 -2.75 3
    endloop
  endfacet
  facet normal -0 0 -1
    outer loop
      vertex -6 -2.75 3
      vertex -8.87639 -3 3
      vertex -6 -2.25 3
    endloop
  endfacet
  facet normal 0 0 -1
    outer loop
      vertex -8.87639 -3 3
      vertex -9.45374 -2 3
      vertex -6 -2.25 3
    endloop
  endfacet
  facet normal 0 0 -1
    outer loop
      vertex -6 -2.25 3
      vertex -9.45374 -2 3
      vertex 6 -2.25 3
    endloop
  endfacet
  facet normal 0 0 -1
    outer loop
      vertex -9.45374 -2 3
      vertex 9.45374 -2 3
      vertex 6 -2.25 3
    endloop
  endfacet
  facet normal 0 0 -1
    outer loop
      vertex 6 -3.25 3
      vertex 8.87639 -3 3
      vertex 6 -3.75 3
    endloop
  endfacet
  facet normal 0 0 -1
    outer loop
      vertex 8.87639 -3 3
      vertex 8.29904 -4 3
      vertex 6 -3.75 3
    endloop
  endfacet
  facet normal -0 -0 -1
    outer loop
      vertex 6 -3.75 3
      vertex 8.29904 -4 3
      vertex -6 -3.75 3
    endloop
  endfacet
  facet normal 0 0 -1
    outer loop
      vertex 8.29904 -4 3
      vertex -8.29904 -4 3
      vertex -6 -3.75 3
    endloop
  endfacet
  facet normal -0 0 -1
    outer loop
      vertex -6 -3.75 3
      vertex -8.29904 -4 3
      vertex -6 -3.25 3
    endloop
  endfacet
  facet normal 0 0 -1
    outer loop
      vertex -8.29904 -4 3
      vertex -8.87639 -3 3
      vertex -6 -3.25 3
    endloop
  endfacet
  facet normal 0 0 -1
    outer loop
      vertex -6 -3.25 3
      vertex -8.87639 -3 3
      vertex 6 -3.25 3
    endloop
  endfacet
  facet normal 0 0 -1
    outer loop
      vertex -8.87639 -3 3
      vertex 8.87639 -3 3
      vertex 6 -3.25 3
    endloop
  endfacet
  facet normal 0 0 -1
    outer loop
      vertex 6 -4.25 3
      vertex 8.29904 -4 3
      vertex 6 -4.75 3
    endloop
  endfacet
  facet normal 0 0 -1
    outer loop
      vertex 8.29904 -4 3
      vertex 7.72169 -5 3
      vertex 6 -4.75 3
    endloop
  endfacet
  facet normal -0 -0 -1
    outer loop
      vertex 6 -4.75 3
      vertex 7.72169 -5 3
      vertex -6 -4.75 3
    endloop
  endfacet
  facet normal 0 0 -1
    outer loop
      vertex 7.72169 -5 3
      vertex -7.72169 -5 3
      vertex -6 -4.75 3
    endloop
  endfacet
  facet normal -0 0 -1
    outer loop
      vertex -6 -4.75 3
      vertex -7.72169 -5 3
      vertex -6 -4.25 3
    endloop
  endfacet
  facet normal 0 0 -1
    outer loop
      vertex -7.72169 -5 3
      vertex -8.29904 -4 3
      vertex -6 -4.25 3
    endloop
  endfacet
  facet normal 0 0 -1
    outer loop
      vertex -6 -4.25 3
      vertex -8.29904 -4 3
      vertex 6 -4.25 3
    endloop
  endfacet
  facet normal 0 0 -1
    outer loop
      vertex -8.29904 -4 3
      vertex 8.29904 -4 3
      vertex 6 -4.25 3
    endloop
  endfacet
  facet normal 0 0 -1
    outer loop
      vertex 6 -5.25 3
      vertex 7.72169 -5 3
      vertex 6 -5.75 3
    endloop
  endfacet
  facet normal 0 0 -1
    outer loop
      vertex 7.72169 -5 3
      vertex 7 -6.25 3
      vertex 6 -5.75 3
    endloop
  endfacet
  facet normal -0 -0 -1
    outer loop
      vertex 6 -5.75 3
      vertex 7 -6.25 3
      vertex -6 -5.75 3
    endloop
  endfacet
  facet normal 0 0 -1
    outer loop
      vertex 7 -6.25 3
      vertex -7 -6.25 3
      vertex -6 -5.75 3
    endloop
  endfacet
  facet normal -0 0 -1
    outer loop
      vertex -6 -5.75 3
      vertex -7 -6.25 3
      vertex -6 -5.25 3
    endloop
  endfacet
  facet normal 0 0 -1
    outer loop
      vertex -7 -6.25 3
      vertex -7.72169 -5 3
      vertex -6 -5.25 3
    endloop
  endfacet
  facet normal 0 0 -1
    outer loop
      vertex -6 -5.25 3
      vertex -7.72169 -5 3
      vertex 6 -5.25 3
    endloop
  endfacet
  facet normal 0 0 -1
    outer loop
      vertex -7.72169 -5 3
      vertex 7.72169 -5 3
      vertex 6 -5.25 3
    endloop
  endfacet
  facet normal 0 0 -1
    outer loop
      vertex -10.0311 -1 3
      vertex -10.5 -1 3
      vertex -10.5 0 3
    endloop
  endfacet
  facet normal 0 0 -1
    outer loop
      vertex 15 -1 3
      vertex 10.0311 -1 3
      vertex 15 0 3
    endloop
  endfacet
  facet normal 0 0 -1
    outer loop
      vertex 10.0311 -1 3
      vertex 6 -0.25 3
      vertex 15 0 3
    endloop
  endfacet
  facet normal -0 0 -1
    outer loop
      vertex 15 0 3
      vertex 6 -0.25 3
      vertex -10.5 0 3
    endloop
  endfacet
  facet normal 0 0 -1
    outer loop
      vertex 6 -0.25 3
      vertex -6 -0.25 3
      vertex -10.5 0 3
    endloop
  endfacet
  facet normal 0 0 -1
    outer loop
      vertex -10.5 0 3
      vertex -6 -0.25 3
      vertex -10.0311 -1 3
    endloop
  endfacet
  facet normal 0 -0 -1
    outer loop
      vertex -6 -0.25 3
      vertex -6 -0.75 3
      vertex -10.0311 -1 3
    endloop
  endfacet
  facet normal 0 0 -1
    outer loop
      vertex -10.0311 -1 3
      vertex -6 -0.75 3
      vertex 10.0311 -1 3
    endloop
  endfacet
  facet normal 0 0 -1
    outer loop
      vertex -6 -0.75 3
      vertex 6 -0.75 3
      vertex 10.0311 -1 3
    endloop
  endfacet
  facet normal 0 0 -1
    outer loop
      vertex 10.0311 -1 3
      vertex 6 -0.75 3
      vertex 6 -0.25 3
    endloop
  endfacet
  facet normal 0 0 -1
    outer loop
      vertex -10.5 -1 3
      vertex -15 -1 3
      vertex -10.5 0 3
    endloop
  endfacet
  facet normal 0 0 -1
    outer loop
      vertex -15 -1 3
      vertex -15 0 3
      vertex -10.5 0 3
    endloop
  endfacet
  facet normal 0 0 -1
    outer loop
      vertex -10.5 0 3
      vertex -15 0 3
      vertex -10.5 1 3
    endloop
  endfacet
  facet normal 0 0 -1
    outer loop
      vertex -15 0 3
      vertex -15 1 3
      vertex -10.5 1 3
    endloop
  endfacet
  facet normal 0 -1 0
    outer loop
      vertex -10.0311 1 1
      vertex -10.0311 1 3
      vertex -10.5 1 1
    endloop
  endfacet
  facet normal -0 -1 0
    outer loop
      vertex -10.0311 1 3
      vertex -10.5 1 3
      vertex -10.5 1 1
    endloop
  endfacet
  facet normal 0 -1 0
    outer loop
      vertex -10.5 1 1
      vertex -10.5 1 3
      vertex -15 1 1
    endloop
  endfacet
  facet normal -0 -1 0
    outer loop
      vertex -10.5 1 3
      vertex -15 1 3
      vertex -15 1 1
    endloop
  endfacet
  facet normal 0 1 0
    outer loop
      vertex -10.0311 -1 3
      vertex -10.0311 -1 1
      vertex -10.5 -1 3
    endloop
  endfacet
  facet normal 0 1 0
    outer loop
      vertex -10.0311 -1 1
      vertex -10.5 -1 1
      vertex -10.5 -1 3
    endloop
  endfacet
  facet normal 0 1 0
    outer loop
      vertex -10.5 -1 3
      vertex -10.5 -1 1
      vertex -15 -1 3
    endloop
  endfacet
  facet normal 0 1 0
    outer loop
      vertex -10.5 -1 1
      vertex -15 -1 1
      vertex -15 -1 3
    endloop
  endfacet
  facet normal -1 0 0
    outer loop
      vertex -6 -4.75 1
      vertex -6 -4.75 3
      vertex -6 -4.25 1
    endloop
  endfacet
  facet normal -1 0 0
    outer loop
      vertex -6 -4.75 3
      vertex -6 -4.25 3
      vertex -6 -4.25 1
    endloop
  endfacet
  facet normal -1 0 0
    outer loop
      vertex -6 -3.75 1
      vertex -6 -3.75 3
      vertex -6 -3.25 1
    endloop
  endfacet
  facet normal -1 0 0
    outer loop
      vertex -6 -3.75 3
      vertex -6 -3.25 3
      vertex -6 -3.25 1
    endloop
  endfacet
  facet normal -1 0 0
    outer loop
      vertex -6 -2.75 1
      vertex -6 -2.75 3
      vertex -6 -2.25 1
    endloop
  endfacet
  facet normal -1 0 0
    outer loop
      vertex -6 -2.75 3
      vertex -6 -2.25 3
      vertex -6 -2.25 1
    endloop
  endfacet
  facet normal -1 0 0
    outer loop
      vertex -6 -1.75 1
      vertex -6 -1.75 3
      vertex -6 -1.25 1
    endloop
  endfacet
  facet normal -1 0 0
    outer loop
      vertex -6 -1.75 3
      vertex -6 -1.25 3
      vertex -6 -1.25 1
    endloop
  endfacet
  facet normal -1 0 0
    outer loop
      vertex -6 1.25 1
      vertex -6 1.25 3
      vertex -6 1.75 1
    endloop
  endfacet
  facet normal -1 0 0
    outer loop
      vertex -6 1.25 3
      vertex -6 1.75 3
      vertex -6 1.75 1
    endloop
  endfacet
  facet normal -0 -1 -0
    outer loop
      vertex 6 -1.75 3
      vertex -6 -1.75 3
      vertex 6 -1.75 1
    endloop
  endfacet
  facet normal 0 -1 0
    outer loop
      vertex -6 -1.75 3
      vertex -6 -1.75 1
      vertex 6 -1.75 1
    endloop
  endfacet
  facet normal -1 0 0
    outer loop
      vertex -6 3.25 1
      vertex -6 3.25 3
      vertex -6 3.75 1
    endloop
  endfacet
  facet normal -1 0 0
    outer loop
      vertex -6 3.25 3
      vertex -6 3.75 3
      vertex -6 3.75 1
    endloop
  endfacet
  facet normal -0 -1 -0
    outer loop
      vertex 6 -0.75 3
      vertex -6 -0.75 3
      vertex 6 -0.75 1
    endloop
  endfacet
  facet normal 0 -1 0
    outer loop
      vertex -6 -0.75 3
      vertex -6 -0.75 1
      vertex 6 -0.75 1
    endloop
  endfacet
  facet normal -1 0 0
    outer loop
      vertex -6 5.25 1
      vertex -6 5.25 3
      vertex -6 5.75 1
    endloop
  endfacet
  facet normal -1 0 0
    outer loop
      vertex -6 5.25 3
      vertex -6 5.75 3
      vertex -6 5.75 1
    endloop
  endfacet
  facet normal -0 -1 -0
    outer loop
      vertex 6 3.25 3
      vertex -6 3.25 3
      vertex 6 3.25 1
    endloop
  endfacet
  facet normal 0 -1 0
    outer loop
      vertex -6 3.25 3
      vertex -6 3.25 1
      vertex 6 3.25 1
    endloop
  endfacet
  facet normal -0 -1 -0
    outer loop
      vertex 6 -2.75 3
      vertex -6 -2.75 3
      vertex 6 -2.75 1
    endloop
  endfacet
  facet normal 0 -1 0
    outer loop
      vertex -6 -2.75 3
      vertex -6 -2.75 1
      vertex 6 -2.75 1
    endloop
  endfacet
  facet normal -0 -1 -0
    outer loop
      vertex 6 5.25 3
      vertex -6 5.25 3
      vertex 6 5.25 1
    endloop
  endfacet
  facet normal 0 -1 0
    outer loop
      vertex -6 5.25 3
      vertex -6 5.25 1
      vertex 6 5.25 1
    endloop
  endfacet
  facet normal -0 -1 -0
    outer loop
      vertex 6 1.25 3
      vertex -6 1.25 3
      vertex 6 1.25 1
    endloop
  endfacet
  facet normal 0 -1 0
    outer loop
      vertex -6 1.25 3
      vertex -6 1.25 1
      vertex 6 1.25 1
    endloop
  endfacet
  facet normal -0 -1 -0
    outer loop
      vertex 7 6.25 3
      vertex -7 6.25 3
      vertex 7 6.25 1
    endloop
  endfacet
  facet normal 0 -1 0
    outer loop
      vertex -7 6.25 3
      vertex -7 6.25 1
      vertex 7 6.25 1
    endloop
  endfacet
  facet normal -0 1 0
    outer loop
      vertex -6 5.75 3
      vertex 6 5.75 3
      vertex -6 5.75 1
    endloop
  endfacet
  facet normal 0 1 0
    outer loop
      vertex 6 5.75 3
      vertex 6 5.75 1
      vertex -6 5.75 1
    endloop
  endfacet
  facet normal -0 -1 -0
    outer loop
      vertex 6 4.25 3
      vertex -6 4.25 3
      vertex 6 4.25 1
    endloop
  endfacet
  facet normal 0 -1 0
    outer loop
      vertex -6 4.25 3
      vertex -6 4.25 1
      vertex 6 4.25 1
    endloop
  endfacet
  facet normal -0 -1 -0
    outer loop
      vertex 6 2.25 3
      vertex -6 2.25 3
      vertex 6 2.25 1
    endloop
  endfacet
  facet normal 0 -1 0
    outer loop
      vertex -6 2.25 3
      vertex -6 2.25 1
      vertex 6 2.25 1
    endloop
  endfacet
  facet normal -0 -1 -0
    outer loop
      vertex 6 0.25 3
      vertex -6 0.25 3
      vertex 6 0.25 1
    endloop
  endfacet
  facet normal 0 -1 0
    outer loop
      vertex -6 0.25 3
      vertex -6 0.25 1
      vertex 6 0.25 1
    endloop
  endfacet
  facet normal -1 0 0
    outer loop
      vertex -6 -5.75 1
      vertex -6 -5.75 3
      vertex -6 -5.25 1
    endloop
  endfacet
  facet normal -1 0 0
    outer loop
      vertex -6 -5.75 3
      vertex -6 -5.25 3
      vertex -6 -5.25 1
    endloop
  endfacet
  facet normal -0 -1 -0
    outer loop
      vertex 6 -3.75 3
      vertex -6 -3.75 3
      vertex 6 -3.75 1
    endloop
  endfacet
  facet normal 0 -1 0
    outer loop
      vertex -6 -3.75 3
      vertex -6 -3.75 1
      vertex 6 -3.75 1
    endloop
  endfacet
  facet normal -0 -1 -0
    outer loop
      vertex 6 -4.75 3
      vertex -6 -4.75 3
      vertex 6 -4.75 1
    endloop
  endfacet
  facet normal 0 -1 0
    outer loop
      vertex -6 -4.75 3
      vertex -6 -4.75 1
      vertex 6 -4.75 1
    endloop
  endfacet
  facet normal -0 -1 -0
    outer loop
      vertex 6 -5.75 3
      vertex -6 -5.75 3
      vertex 6 -5.75 1
    endloop
  endfacet
  facet normal 0 -1 0
    outer loop
      vertex -6 -5.75 3
      vertex -6 -5.75 1
      vertex 6 -5.75 1
    endloop
  endfacet
  facet normal -0 1 0
    outer loop
      vertex -6 4.75 3
      vertex 6 4.75 3
      vertex -6 4.75 1
    endloop
  endfacet
  facet normal 0 1 0
    outer loop
      vertex 6 4.75 3
      vertex 6 4.75 1
      vertex -6 4.75 1
    endloop
  endfacet
  facet normal -0 1 0
    outer loop
      vertex -6 3.75 3
      vertex 6 3.75 3
      vertex -6 3.75 1
    endloop
  endfacet
  facet normal 0 1 0
    outer loop
      vertex 6 3.75 3
      vertex 6 3.75 1
      vertex -6 3.75 1
    endloop
  endfacet
  facet normal -0 1 0
    outer loop
      vertex -6 2.75 3
      vertex 6 2.75 3
      vertex -6 2.75 1
    endloop
  endfacet
  facet normal 0 1 0
    outer loop
      vertex 6 2.75 3
      vertex 6 2.75 1
      vertex -6 2.75 1
    endloop
  endfacet
  facet normal -0 1 0
    outer loop
      vertex -6 1.75 3
      vertex 6 1.75 3
      vertex -6 1.75 1
    endloop
  endfacet
  facet normal 0 1 0
    outer loop
      vertex 6 1.75 3
      vertex 6 1.75 1
      vertex -6 1.75 1
    endloop
  endfacet
  facet normal -0 1 0
    outer loop
      vertex -6 0.75 3
      vertex 6 0.75 3
      vertex -6 0.75 1
    endloop
  endfacet
  facet normal 0 1 0
    outer loop
      vertex 6 0.75 3
      vertex 6 0.75 1
      vertex -6 0.75 1
    endloop
  endfacet
  facet normal -0 1 0
    outer loop
      vertex -6 -0.25 3
      vertex 6 -0.25 3
      vertex -6 -0.25 1
    endloop
  endfacet
  facet normal 0 1 0
    outer loop
      vertex 6 -0.25 3
      vertex 6 -0.25 1
      vertex -6 -0.25 1
    endloop
  endfacet
  facet normal -0 0 1
    outer loop
      vertex 6 5.25 1
      vertex 7.72169 5 1
      vertex 6 5.75 1
    endloop
  endfacet
  facet normal 0 0 1
    outer loop
      vertex 7.72169 5 1
      vertex 7 6.25 1
      vertex 6 5.75 1
    endloop
  endfacet
  facet normal 0 -0 1
    outer loop
      vertex 6 5.75 1
      vertex 7 6.25 1
      vertex -6 5.75 1
    endloop
  endfacet
  facet normal 0 0 1
    outer loop
      vertex 7 6.25 1
      vertex -7 6.25 1
      vertex -6 5.75 1
    endloop
  endfacet
  facet normal 0 0 1
    outer loop
      vertex -6 5.75 1
      vertex -7 6.25 1
      vertex -6 5.25 1
    endloop
  endfacet
  facet normal 0 0 1
    outer loop
      vertex -7 6.25 1
      vertex -7.72169 5 1
      vertex -6 5.25 1
    endloop
  endfacet
  facet normal 0 0 1
    outer loop
      vertex -7.72169 5 1
      vertex -6 4.75 1
      vertex 6 4.75 1
    endloop
  endfacet
  facet normal -0 0 1
    outer loop
      vertex 6 4.25 1
      vertex 8.29904 4 1
      vertex 6 4.75 1
    endloop
  endfacet
  facet normal 0 0 1
    outer loop
      vertex 8.29904 4 1
      vertex 7.72169 5 1
      vertex 6 4.75 1
    endloop
  endfacet
  facet normal 0 -0 1
    outer loop
      vertex 6 4.75 1
      vertex 7.72169 5 1
      vertex -7.72169 5 1
    endloop
  endfacet
  facet normal 0 0 1
    outer loop
      vertex 7.72169 5 1
      vertex 6 5.25 1
      vertex -7.72169 5 1
    endloop
  endfacet
  facet normal 0 0 1
    outer loop
      vertex -7.72169 5 1
      vertex 6 5.25 1
      vertex -6 5.25 1
    endloop
  endfacet
  facet normal 0 0 1
    outer loop
      vertex -6 4.75 1
      vertex -7.72169 5 1
      vertex -6 4.25 1
    endloop
  endfacet
  facet normal 0 0 1
    outer loop
      vertex -7.72169 5 1
      vertex -8.29904 4 1
      vertex -6 4.25 1
    endloop
  endfacet
  facet normal -0 0 1
    outer loop
      vertex -6 4.25 1
      vertex -8.29904 4 1
      vertex 6 4.25 1
    endloop
  endfacet
  facet normal 0 0 1
    outer loop
      vertex 6 4.25 1
      vertex -8.29904 4 1
      vertex 8.29904 4 1
    endloop
  endfacet
  facet normal -0 0 1
    outer loop
      vertex -8.29904 4 1
      vertex 6 3.75 1
      vertex 8.29904 4 1
    endloop
  endfacet
  facet normal 0 0 1
    outer loop
      vertex 8.29904 4 1
      vertex 6 3.75 1
      vertex 8.87639 3 1
    endloop
  endfacet
  facet normal 0 0 1
    outer loop
      vertex 6 3.75 1
      vertex 6 3.25 1
      vertex 8.87639 3 1
    endloop
  endfacet
  facet normal 0 0 1
    outer loop
      vertex 8.87639 3 1
      vertex 6 3.25 1
      vertex -8.87639 3 1
    endloop
  endfacet
  facet normal 0 0 1
    outer loop
      vertex 6 3.25 1
      vertex -6 3.25 1
      vertex -8.87639 3 1
    endloop
  endfacet
  facet normal 0 0 1
    outer loop
      vertex -8.87639 3 1
      vertex -6 3.25 1
      vertex -8.29904 4 1
    endloop
  endfacet
  facet normal 0 -0 1
    outer loop
      vertex -6 3.25 1
      vertex -6 3.75 1
      vertex -8.29904 4 1
    endloop
  endfacet
  facet normal 0 0 1
    outer loop
      vertex -8.29904 4 1
      vertex -6 3.75 1
      vertex 6 3.75 1
    endloop
  endfacet
  facet normal 0 0 1
    outer loop
      vertex -6 2.75 1
      vertex -8.87639 3 1
      vertex -6 2.25 1
    endloop
  endfacet
  facet normal 0 0 1
    outer loop
      vertex -8.87639 3 1
      vertex -9.45374 2 1
      vertex -6 2.25 1
    endloop
  endfacet
  facet normal -0 0 1
    outer loop
      vertex -6 2.25 1
      vertex -9.45374 2 1
      vertex 6 2.25 1
    endloop
  endfacet
  facet normal 0 0 1
    outer loop
      vertex -9.45374 2 1
      vertex 9.45374 2 1
      vertex 6 2.25 1
    endloop
  endfacet
  facet normal -0 0 1
    outer loop
      vertex 6 2.25 1
      vertex 9.45374 2 1
      vertex 6 2.75 1
    endloop
  endfacet
  facet normal 0 0 1
    outer loop
      vertex 9.45374 2 1
      vertex 8.87639 3 1
      vertex 6 2.75 1
    endloop
  endfacet
  facet normal 0 -0 1
    outer loop
      vertex 6 2.75 1
      vertex 8.87639 3 1
      vertex -6 2.75 1
    endloop
  endfacet
  facet normal 0 0 1
    outer loop
      vertex 8.87639 3 1
      vertex -8.87639 3 1
      vertex -6 2.75 1
    endloop
  endfacet
  facet normal 0 0 1
    outer loop
      vertex 10.0311 1 1
      vertex 6 1.25 1
      vertex -6 1.25 1
    endloop
  endfacet
  facet normal -0 0 1
    outer loop
      vertex 6 1.25 1
      vertex 10.0311 1 1
      vertex 6 1.75 1
    endloop
  endfacet
  facet normal 0 0 1
    outer loop
      vertex 10.0311 1 1
      vertex 9.45374 2 1
      vertex 6 1.75 1
    endloop
  endfacet
  facet normal 0 -0 1
    outer loop
      vertex 6 1.75 1
      vertex 9.45374 2 1
      vertex -6 1.75 1
    endloop
  endfacet
  facet normal 0 0 1
    outer loop
      vertex 9.45374 2 1
      vertex -9.45374 2 1
      vertex -6 1.75 1
    endloop
  endfacet
  facet normal 0 0 1
    outer loop
      vertex -6 1.75 1
      vertex -9.45374 2 1
      vertex -6 1.25 1
    endloop
  endfacet
  facet normal 0 0 1
    outer loop
      vertex -9.45374 2 1
      vertex -10.0311 1 1
      vertex -6 1.25 1
    endloop
  endfacet
  facet normal 0 0 1
    outer loop
      vertex -6 1.25 1
      vertex -10.0311 1 1
      vertex 10.0311 1 1
    endloop
  endfacet
  facet normal 0 0 1
    outer loop
      vertex 15 0 1
      vertex 6 -0.25 1
      vertex 6 -0.75 1
    endloop
  endfacet
  facet normal 0 -0 1
    outer loop
      vertex 9.45374 -2 1
      vertex 10.0311 -1 1
      vertex 6 -1.25 1
    endloop
  endfacet
  facet normal 0 0 1
    outer loop
      vertex 6 -1.25 1
      vertex 6 -1.75 1
      vertex 9.45374 -2 1
    endloop
  endfacet
  facet normal 0 0 1
    outer loop
      vertex 6 -1.75 1
      vertex -6 -1.75 1
      vertex 9.45374 -2 1
    endloop
  endfacet
  facet normal 0 0 1
    outer loop
      vertex 9.45374 -2 1
      vertex -6 -1.75 1
      vertex -9.45374 -2 1
    endloop
  endfacet
  facet normal 0 0 1
    outer loop
      vertex -10.5 0 1
      vertex -10.5 -1 1
      vertex -10.0311 -1 1
    endloop
  endfacet
  facet normal -0 0 1
    outer loop
      vertex -6 -0.75 1
      vertex -6 -1.25 1
      vertex 6 -0.75 1
    endloop
  endfacet
  facet normal 0 0 1
    outer loop
      vertex -6 -1.25 1
      vertex 6 -1.25 1
      vertex 6 -0.75 1
    endloop
  endfacet
  facet normal -0 0 1
    outer loop
      vertex 6 -0.75 1
      vertex 6 -1.25 1
      vertex 15 0 1
    endloop
  endfacet
  facet normal 0 0 1
    outer loop
      vertex 6 -1.25 1
      vertex 10.0311 -1 1
      vertex 15 0 1
    endloop
  endfacet
  facet normal 0 0 1
    outer loop
      vertex 15 0 1
      vertex 10.0311 -1 1
      vertex 15 -1 1
    endloop
  endfacet
  facet normal 0 -0 1
    outer loop
      vertex -9.45374 -2 1
      vertex -6 -1.75 1
      vertex -10.0311 -1 1
    endloop
  endfacet
  facet normal 0 -0 1
    outer loop
      vertex -6 -1.75 1
      vertex -6 -1.25 1
      vertex -10.0311 -1 1
    endloop
  endfacet
  facet normal -0 -0 1
    outer loop
      vertex -10.0311 -1 1
      vertex -6 -1.25 1
      vertex -10.5 0 1
    endloop
  endfacet
  facet normal 0 -0 1
    outer loop
      vertex -6 -1.25 1
      vertex -6 -0.75 1
      vertex -10.5 0 1
    endloop
  endfacet
  facet normal 0 0 1
    outer loop
      vertex -10.5 0 1
      vertex -6 -0.75 1
      vertex -6 -0.25 1
    endloop
  endfacet
  facet normal 0 0 1
    outer loop
      vertex -6 -2.25 1
      vertex -9.45374 -2 1
      vertex -6 -2.75 1
    endloop
  endfacet
  facet normal 0 0 1
    outer loop
      vertex -9.45374 -2 1
      vertex -8.87639 -3 1
      vertex -6 -2.75 1
    endloop
  endfacet
  facet normal -0 0 1
    outer loop
      vertex -6 -2.75 1
      vertex -8.87639 -3 1
      vertex 6 -2.75 1
    endloop
  endfacet
  facet normal 0 0 1
    outer loop
      vertex -8.87639 -3 1
      vertex 8.87639 -3 1
      vertex 6 -2.75 1
    endloop
  endfacet
  facet normal -0 0 1
    outer loop
      vertex 6 -2.75 1
      vertex 8.87639 -3 1
      vertex 6 -2.25 1
    endloop
  endfacet
  facet normal 0 -0 1
    outer loop
      vertex 8.87639 -3 1
      vertex 9.45374 -2 1
      vertex 6 -2.25 1
    endloop
  endfacet
  facet normal 0 -0 1
    outer loop
      vertex 6 -2.25 1
      vertex 9.45374 -2 1
      vertex -6 -2.25 1
    endloop
  endfacet
  facet normal 0 0 1
    outer loop
      vertex 9.45374 -2 1
      vertex -9.45374 -2 1
      vertex -6 -2.25 1
    endloop
  endfacet
  facet normal 0 0 1
    outer loop
      vertex 8.29904 -4 1
      vertex 6 -3.75 1
      vertex -6 -3.75 1
    endloop
  endfacet
  facet normal -0 0 1
    outer loop
      vertex 6 -3.75 1
      vertex 8.29904 -4 1
      vertex 6 -3.25 1
    endloop
  endfacet
  facet normal 0 -0 1
    outer loop
      vertex 8.29904 -4 1
      vertex 8.87639 -3 1
      vertex 6 -3.25 1
    endloop
  endfacet
  facet normal 0 -0 1
    outer loop
      vertex 6 -3.25 1
      vertex 8.87639 -3 1
      vertex -6 -3.25 1
    endloop
  endfacet
  facet normal 0 0 1
    outer loop
      vertex 8.87639 -3 1
      vertex -8.87639 -3 1
      vertex -6 -3.25 1
    endloop
  endfacet
  facet normal 0 0 1
    outer loop
      vertex -6 -3.25 1
      vertex -8.87639 -3 1
      vertex -6 -3.75 1
    endloop
  endfacet
  facet normal 0 0 1
    outer loop
      vertex -8.87639 -3 1
      vertex -8.29904 -4 1
      vertex -6 -3.75 1
    endloop
  endfacet
  facet normal 0 0 1
    outer loop
      vertex -6 -3.75 1
      vertex -8.29904 -4 1
      vertex 8.29904 -4 1
    endloop
  endfacet
  facet normal -0 0 1
    outer loop
      vertex 6 -4.75 1
      vertex 7.72169 -5 1
      vertex 6 -4.25 1
    endloop
  endfacet
  facet normal 0 -0 1
    outer loop
      vertex 7.72169 -5 1
      vertex 8.29904 -4 1
      vertex 6 -4.25 1
    endloop
  endfacet
  facet normal 0 -0 1
    outer loop
      vertex 6 -4.25 1
      vertex 8.29904 -4 1
      vertex -6 -4.25 1
    endloop
  endfacet
  facet normal 0 0 1
    outer loop
      vertex 8.29904 -4 1
      vertex -8.29904 -4 1
      vertex -6 -4.25 1
    endloop
  endfacet
  facet normal 0 0 1
    outer loop
      vertex -6 -4.25 1
      vertex -8.29904 -4 1
      vertex -6 -4.75 1
    endloop
  endfacet
  facet normal 0 0 1
    outer loop
      vertex -8.29904 -4 1
      vertex -7.72169 -5 1
      vertex -6 -4.75 1
    endloop
  endfacet
  facet normal 0 0 1
    outer loop
      vertex 7.72169 -5 1
      vertex 6 -5.25 1
      vertex 7.14434 -6 1
    endloop
  endfacet
  facet normal 0 0 1
    outer loop
      vertex 6 -5.25 1
      vertex 6 -5.75 1
      vertex 7.14434 -6 1
    endloop
  endfacet
  facet normal 0 0 1
    outer loop
      vertex 7.14434 -6 1
      vertex 6 -5.75 1
      vertex -6 -5.75 1
    endloop
  endfacet
  facet normal 0 0 1
    outer loop
      vertex 6 -4.75 1
      vertex -6 -4.75 1
      vertex 7.72169 -5 1
    endloop
  endfacet
  facet normal 0 0 1
    outer loop
      vertex -6 -4.75 1
      vertex -7.72169 -5 1
      vertex 7.72169 -5 1
    endloop
  endfacet
  facet normal 0 0 1
    outer loop
      vertex 7.72169 -5 1
      vertex -7.72169 -5 1
      vertex 6 -5.25 1
    endloop
  endfacet
  facet normal 0 0 1
    outer loop
      vertex -7.72169 -5 1
      vertex -6 -5.25 1
      vertex 6 -5.25 1
    endloop
  endfacet
  facet normal 0 0 1
    outer loop
      vertex -6 -5.25 1
      vertex -7.72169 -5 1
      vertex -6 -5.75 1
    endloop
  endfacet
  facet normal 0 0 1
    outer loop
      vertex -7.72169 -5 1
      vertex -7.14434 -6 1
      vertex -6 -5.75 1
    endloop
  endfacet
  facet normal 0 0 1
    outer loop
      vertex -6 -5.75 1
      vertex -7.14434 -6 1
      vertex 7.14434 -6 1
    endloop
  endfacet
  facet normal -0 0 1
    outer loop
      vertex -7.14434 -6 1
      vertex -7 -6.25 1
      vertex 7.14434 -6 1
    endloop
  endfacet
  facet normal 0 0 1
    outer loop
      vertex 7.14434 -6 1
      vertex -7 -6.25 1
      vertex 7 -6.25 1
    endloop
  endfacet
  facet normal 0 -0 1
    outer loop
      vertex 15 0 1
      vertex 15 1 1
      vertex 10.0311 1 1
    endloop
  endfacet
  facet normal 0 0 1
    outer loop
      vertex 6 0.25 1
      vertex -6 0.25 1
      vertex -10.5 0 1
    endloop
  endfacet
  facet normal 0 0 1
    outer loop
      vertex -6 0.25 1
      vertex -10.0311 1 1
      vertex -10.5 0 1
    endloop
  endfacet
  facet normal 0 0 1
    outer loop
      vertex -10.5 0 1
      vertex -10.0311 1 1
      vertex -10.5 1 1
    endloop
  endfacet
  facet normal 0 -0 1
    outer loop
      vertex -6 -0.25 1
      vertex 6 -0.25 1
      vertex -10.5 0 1
    endloop
  endfacet
  facet normal 0 -0 1
    outer loop
      vertex 6 -0.25 1
      vertex 15 0 1
      vertex -10.5 0 1
    endloop
  endfacet
  facet normal 0 0 1
    outer loop
      vertex -10.5 0 1
      vertex 15 0 1
      vertex 6 0.25 1
    endloop
  endfacet
  facet normal 0 0 1
    outer loop
      vertex 15 0 1
      vertex 10.0311 1 1
      vertex 6 0.25 1
    endloop
  endfacet
  facet normal 0 0 1
    outer loop
      vertex 6 0.25 1
      vertex 10.0311 1 1
      vertex 6 0.75 1
    endloop
  endfacet
  facet normal 0 0 1
    outer loop
      vertex 10.0311 1 1
      vertex -10.0311 1 1
      vertex 6 0.75 1
    endloop
  endfacet
  facet normal 0 0 1
    outer loop
      vertex 6 0.75 1
      vertex -10.0311 1 1
      vertex -6 0.75 1
    endloop
  endfacet
  facet normal 0 0 1
    outer loop
      vertex -10.0311 1 1
      vertex -6 0.25 1
      vertex -6 0.75 1
    endloop
  endfacet
  facet normal 0 0 1
    outer loop
      vertex -10.5 1 1
      vertex -15 1 1
      vertex -10.5 0 1
    endloop
  endfacet
  facet normal 0 0 1
    outer loop
      vertex -15 1 1
      vertex -15 0 1
      vertex -10.5 0 1
    endloop
  endfacet
  facet normal 0 0 1
    outer loop
      vertex -10.5 0 1
      vertex -15 0 1
      vertex -10.5 -1 1
    endloop
  endfacet
  facet normal 0 0 1
    outer loop
      vertex -15 0 1
      vertex -15 -1 1
      vertex -10.5 -1 1
    endloop
  endfacet
  facet normal -0 1 0
    outer loop
      vertex -6 -1.25 3
      vertex 6 -1.25 3
      vertex -6 -1.25 1
    endloop
  endfacet
  facet normal 0 1 0
    outer loop
      vertex 6 -1.25 3
      vertex 6 -1.25 1
      vertex -6 -1.25 1
    endloop
  endfacet
  facet normal -1 0 0
    outer loop
      vertex -6 4.25 1
      vertex -6 4.25 3
      vertex -6 4.75 1
    endloop
  endfacet
  facet normal -1 0 0
    outer loop
      vertex -6 4.25 3
      vertex -6 4.75 3
      vertex -6 4.75 1
    endloop
  endfacet
  facet normal -0 1 0
    outer loop
      vertex -6 -2.25 3
      vertex 6 -2.25 3
      vertex -6 -2.25 1
    endloop
  endfacet
  facet normal 0 1 0
    outer loop
      vertex 6 -2.25 3
      vertex 6 -2.25 1
      vertex -6 -2.25 1
    endloop
  endfacet
  facet normal -1 0 0
    outer loop
      vertex -6 2.25 1
      vertex -6 2.25 3
      vertex -6 2.75 1
    endloop
  endfacet
  facet normal -1 0 0
    outer loop
      vertex -6 2.25 3
      vertex -6 2.75 3
      vertex -6 2.75 1
    endloop
  endfacet
  facet normal -0 1 0
    outer loop
      vertex -6 -3.25 3
      vertex 6 -3.25 3
      vertex -6 -3.25 1
    endloop
  endfacet
  facet normal 0 1 0
    outer loop
      vertex 6 -3.25 3
      vertex 6 -3.25 1
      vertex -6 -3.25 1
    endloop
  endfacet
  facet normal -0 1 0
    outer loop
      vertex -6 -4.25 3
      vertex 6 -4.25 3
      vertex -6 -4.25 1
    endloop
  endfacet
  facet normal 0 1 0
    outer loop
      vertex 6 -4.25 3
      vertex 6 -4.25 1
      vertex -6 -4.25 1
    endloop
  endfacet
  facet normal -0 1 0
    outer loop
      vertex -6 -5.25 3
      vertex 6 -5.25 3
      vertex -6 -5.25 1
    endloop
  endfacet
  facet normal 0 1 0
    outer loop
      vertex 6 -5.25 3
      vertex 6 -5.25 1
      vertex -6 -5.25 1
    endloop
  endfacet
  facet normal -0 1 0
    outer loop
      vertex -7 -6.25 3
      vertex 7 -6.25 3
      vertex -7 -6.25 1
    endloop
  endfacet
  facet normal 0 1 0
    outer loop
      vertex 7 -6.25 3
      vertex 7 -6.25 1
      vertex -7 -6.25 1
    endloop
  endfacet
  facet normal -1 0 0
    outer loop
      vertex 15 0 2
      vertex 15 1 3
      vertex 15 1 1
    endloop
  endfacet
  facet normal -1 0 0
    outer loop
      vertex 15 0 2
      vertex 15 0 3
      vertex 15 1 3
    endloop
  endfacet
  facet normal -1 0 0
    outer loop
      vertex 15 0 2
      vertex 15 -1 3
      vertex 15 0 3
    endloop
  endfacet
  facet normal -1 -0 0
    outer loop
      vertex 15 0 2
      vertex 15 -1 1
      vertex 15 -1 3
    endloop
  endfacet
  facet normal -1 0 -0
    outer loop
      vertex 15 0 2
      vertex 15 0 1
      vertex 15 -1 1
    endloop
  endfacet
  facet normal -1 0 0
    outer loop
      vertex 15 0 2
      vertex 15 1 1
      vertex 15 0 1
    endloop
  endfacet
  facet normal 1 0 0
    outer loop
      vertex 6 -0.5 2
      vertex 6 -0.75 3
      vertex 6 -0.75 1
    endloop
  endfacet
  facet normal 1 0 -0
    outer loop
      vertex 6 -0.5 2
      vertex 6 -0.25 3
      vertex 6 -0.75 3
    endloop
  endfacet
  facet normal 1 -0 0
    outer loop
      vertex 6 -0.5 2
      vertex 6 -0.25 1
      vertex 6 -0.25 3
    endloop
  endfacet
  facet normal 1 0 0
    outer loop
      vertex 6 -0.5 2
      vertex 6 -0.75 1
      vertex 6 -0.25 1
    endloop
  endfacet
  facet normal 1 0 0
    outer loop
      vertex 6 0.5 2
      vertex 6 0.25 3
      vertex 6 0.25 1
    endloop
  endfacet
  facet normal 1 0 -0
    outer loop
      vertex 6 0.5 2
      vertex 6 0.75 3
      vertex 6 0.25 3
    endloop
  endfacet
  facet normal 1 -0 0
    outer loop
      vertex 6 0.5 2
      vertex 6 0.75 1
      vertex 6 0.75 3
    endloop
  endfacet
  facet normal 1 0 0
    outer loop
      vertex 6 0.5 2
      vertex 6 0.25 1
      vertex 6 0.75 1
    endloop
  endfacet
  facet normal -1 0 0
    outer loop
      vertex -6 0.5 2
      vertex -6 0.25 3
      vertex -6 0.75 3
    endloop
  endfacet
  facet normal -1 -0 0
    outer loop
      vertex -6 0.5 2
      vertex -6 0.25 1
      vertex -6 0.25 3
    endloop
  endfacet
  facet normal -1 0 -0
    outer loop
      vertex -6 0.5 2
      vertex -6 0.75 1
      vertex -6 0.25 1
    endloop
  endfacet
  facet normal -1 0 0
    outer loop
      vertex -6 0.5 2
      vertex -6 0.75 3
      vertex -6 0.75 1
    endloop
  endfacet
  facet normal -1 0 0
    outer loop
      vertex -6 -0.5 2
      vertex -6 -0.75 3
      vertex -6 -0.25 3
    endloop
  endfacet
  facet normal -1 -0 0
    outer loop
      vertex -6 -0.5 2
      vertex -6 -0.75 1
      vertex -6 -0.75 3
    endloop
  endfacet
  facet normal -1 0 -0
    outer loop
      vertex -6 -0.5 2
      vertex -6 -0.25 1
      vertex -6 -0.75 1
    endloop
  endfacet
  facet normal -1 0 0
    outer loop
      vertex -6 -0.5 2
      vertex -6 -0.25 3
      vertex -6 -0.25 1
    endloop
  endfacet
  facet normal 1 0 -0
    outer loop
      vertex -15 0 2
      vertex -15 0 3
      vertex -15 -1 3
    endloop
  endfacet
  facet normal 1 0 0
    outer loop
      vertex -15 0 2
      vertex -15 1 3
      vertex -15 0 3
    endloop
  endfacet
  facet normal 1 -0 0
    outer loop
      vertex -15 0 2
      vertex -15 1 1
      vertex -15 1 3
    endloop
  endfacet
  facet normal 1 0 0
    outer loop
      vertex -15 0 2
      vertex -15 0 1
      vertex -15 1 1
    endloop
  endfacet
  facet normal 1 0 0
    outer loop
      vertex -15 0 2
      vertex -15 -1 1
      vertex -15 0 1
    endloop
  endfacet
  facet normal 1 0 0
    outer loop
      vertex -15 0 2
      vertex -15 -1 3
      vertex -15 -1 1
    endloop
  endfacet
endsolid fluid
